HIERARCHY
ROOT mixamorig:Hips
{
  OFFSET 0.000000 0.000000 0.000000
  CHANNELS 6 Xposition Yposition Zposition Xrotation Yrotation Zrotation
  JOINT mixamorig:Spine
  {
    OFFSET -2.467216 22.898095 2.652771
    CHANNELS 3 Xrotation Yrotation Zrotation
    JOINT mixamorig:Spine2
    {
      OFFSET -2.467216 22.898095 2.652771
      CHANNELS 3 Xrotation Yrotation Zrotation
      JOINT mixamorig:Neck
      {
        OFFSET 0.000000 3.505379 0.000000
        CHANNELS 3 Xrotation Yrotation Zrotation
        JOINT mixamorig:Head
        {
          OFFSET 0.000000 10.000000 0.000000
          CHANNELS 3 Xrotation Yrotation Zrotation
          End Site
          {
            OFFSET 0.000000 3.000000 0.000000
          }
        }
      }
      JOINT mixamorig:LeftShoulder
      {
        OFFSET 13.902884 1.363860 -6.934310
        CHANNELS 3 Xrotation Yrotation Zrotation
        JOINT mixamorig:LeftArm
        {
          OFFSET 10.000000 -2.000000 0.000000
          CHANNELS 3 Xrotation Yrotation Zrotation
          JOINT mixamorig:LeftForeArm
          {
            OFFSET 24.979475 0.000000 0.000000
            CHANNELS 3 Xrotation Yrotation Zrotation
            JOINT mixamorig:LeftHand
            {
              OFFSET 25.854364 0.000000 0.000000
              CHANNELS 3 Xrotation Yrotation Zrotation
              End Site
              {
                OFFSET 7.756309 0.000000 0.000000
              }
            }
          }
        }
      }
      JOINT mixamorig:RightShoulder
      {
        OFFSET -13.902884 1.363860 6.934310
        CHANNELS 3 Xrotation Yrotation Zrotation
        JOINT mixamorig:RightArm
        {
          OFFSET -10.000000 -2.000000 0.000000
          CHANNELS 3 Xrotation Yrotation Zrotation
          JOINT mixamorig:RightForeArm
          {
            OFFSET -24.979475 0.000000 0.000000
            CHANNELS 3 Xrotation Yrotation Zrotation
            JOINT mixamorig:RightHand
            {
              OFFSET -25.854364 0.000000 0.000000
              CHANNELS 3 Xrotation Yrotation Zrotation
              End Site
              {
                OFFSET -7.756309 0.000000 0.000000
              }
            }
          }
        }
      }
    }
  }
  JOINT mixamorig:LeftUpLeg
  {
    OFFSET 9.861849 0.444407 -0.976718
    CHANNELS 3 Xrotation Yrotation Zrotation
    JOINT mixamorig:LeftLeg
    {
      OFFSET 11.180432 -36.270921 -9.220837
      CHANNELS 3 Xrotation Yrotation Zrotation
      JOINT mixamorig:LeftFoot
      {
        OFFSET 17.156359 -38.964623 1.258087
        CHANNELS 3 Xrotation Yrotation Zrotation
        JOINT mixamorig:LeftToeBase
        {
          OFFSET 0.360386 -5.409297 -8.545403
          CHANNELS 3 Xrotation Yrotation Zrotation
          End Site
          {
            OFFSET 0.108116 -1.622789 -2.563621
          }
        }
      }
    }
  }
  JOINT mixamorig:RightUpLeg
  {
    OFFSET -9.861849 -0.444407 0.976718
    CHANNELS 3 Xrotation Yrotation Zrotation
    JOINT mixamorig:RightLeg
    {
      OFFSET -13.248413 -36.677920 2.194377
      CHANNELS 3 Xrotation Yrotation Zrotation
      JOINT mixamorig:RightFoot
      {
        OFFSET -4.072217 -37.392453 19.984664
        CHANNELS 3 Xrotation Yrotation Zrotation
        JOINT mixamorig:RightToeBase
        {
          OFFSET -8.423535 -3.852637 -4.076215
          CHANNELS 3 Xrotation Yrotation Zrotation
          End Site
          {
            OFFSET -2.527060 -1.155791 -1.222865
          }
        }
      }
    }
  }
}
MOTION
Frames: 9
Frame Time: 0.041667
-0.009547 0.247317 0.000000 -9.158592 -0.709899 -7.752166 -0.050048 0.012462 -0.154692 5.636492 9.004768 8.177929 1.607737 0.166192 6.641141 1.616016 -0.020343 6.649056 0.000000 0.000000 0.000000 -19.304308 24.888432 -75.243412 161.059886 46.808881 171.741572 0.000000 0.000000 0.000000 0.000000 0.000000 0.000000 -37.062944 -35.748190 92.215334 -131.691328 -27.230504 167.598296 0.000000 0.000000 0.000000 5.972230 0.761066 3.534815 -3.023316 -1.532106 -3.098950 5.910689 -6.914961 4.143236 0.000000 0.000000 0.000000 4.999028 -1.803223 -0.118089 0.689014 0.474533 1.041952 12.313500 -30.381783 0.311001 0.000000 0.000000 0.000000
-0.011898 0.247671 0.000000 -9.158335 -0.710369 -7.737509 -0.049864 0.012482 -0.154687 5.638543 8.986031 8.162381 1.552074 0.125864 6.634666 1.555927 -0.053471 6.642964 0.000000 0.000000 0.000000 -19.361345 24.964085 -75.236401 160.870069 46.596371 171.701741 0.000000 0.000000 0.000000 0.000000 0.000000 0.000000 -37.089018 -35.762249 92.234784 -131.649370 -27.207578 167.595842 0.000000 0.000000 0.000000 5.763585 0.710214 3.509761 -2.836457 -1.443482 -3.100453 5.987008 -6.986213 4.180845 0.000000 0.000000 0.000000 4.999028 -1.803223 -0.118089 0.689014 0.474533 1.041952 12.231282 -30.314699 0.392767 0.000000 0.000000 0.000000
-0.003253 0.248495 0.000000 -9.218681 -0.719288 -7.783741 -0.051567 0.012535 -0.156760 5.608106 9.262939 8.231706 0.721556 -0.350330 6.739977 0.675560 -0.432538 6.743282 0.000000 0.000000 0.000000 -19.227399 24.734321 -75.366658 160.900860 45.756400 171.874811 0.000000 0.000000 0.000000 0.000000 0.000000 0.000000 -37.033689 -35.576460 92.460441 -127.581445 -26.815255 166.638233 0.000000 0.000000 0.000000 7.224965 1.056071 3.718049 -4.125386 -2.045882 -2.973936 5.579152 -5.224774 3.197614 0.000000 0.000000 0.000000 4.999028 -1.803223 -0.118089 0.689014 0.474533 1.041952 13.284954 -31.396201 -0.524548 0.000000 0.000000 0.000000
0.046584 0.249371 0.000000 -9.447192 -0.762178 -7.695282 -0.054735 0.013111 -0.164751 5.656968 8.816327 8.145338 -0.289909 -1.161524 6.696711 -0.421824 -1.120483 6.705226 0.000000 0.000000 0.000000 -20.221115 25.695872 -75.970602 161.485721 42.530664 172.662196 0.000000 0.000000 0.000000 0.000000 0.000000 0.000000 -37.937090 -36.243202 92.801053 -120.641952 -25.116480 165.623804 0.000000 0.000000 0.000000 6.995358 0.987939 3.729359 -3.453937 -1.726881 -2.965054 5.432659 -4.590337 2.838545 0.000000 0.000000 0.000000 4.999028 -1.803223 -0.118089 0.689014 0.474533 1.041952 13.204620 -31.296047 -0.463710 0.000000 0.000000 0.000000
0.181830 0.249670 0.000000 -9.844649 -0.835640 -7.565472 -0.060409 0.014102 -0.178707 5.796747 7.537103 7.986546 -0.432937 -1.897065 6.480113 -0.643101 -1.834462 6.488840 0.000000 0.000000 0.000000 -22.774376 28.017830 -77.696011 138.165414 37.277876 147.170917 0.000000 0.000000 0.000000 0.000000 0.000000 0.000000 -39.946312 -37.888877 93.260358 -108.423598 -21.992470 164.039703 0.000000 0.000000 0.000000 6.569478 0.885496 3.674736 -2.049529 -1.071889 -3.116106 4.873696 -5.143498 3.166119 0.000000 0.000000 0.000000 4.999028 -1.803223 -0.118089 0.689014 0.474533 1.041952 12.328250 -30.038307 0.100704 0.000000 0.000000 0.000000
0.519853 0.247606 0.000000 -9.785561 -0.828910 -7.449704 -0.057687 0.014196 -0.176950 5.938510 6.226870 7.787461 0.777372 -2.374130 6.326030 0.505856 -2.447111 6.281767 0.000000 0.000000 0.000000 -25.733645 30.513095 -79.878014 20.210666 31.201502 24.756385 0.000000 0.000000 0.000000 0.000000 0.000000 0.000000 -40.951213 -38.520396 93.796604 -98.017921 -20.536393 162.102399 0.000000 0.000000 0.000000 5.941165 0.765939 3.494140 -1.197980 -0.679677 -3.336893 4.713482 -6.607322 4.016154 0.000000 0.000000 0.000000 4.999028 -1.803223 -0.118089 0.689014 0.474533 1.041952 11.279870 -28.198100 0.610187 0.000000 0.000000 0.000000
1.183925 0.244687 0.000000 -9.231155 -0.733177 -7.450147 -0.047849 0.013095 -0.158114 6.197609 3.831943 7.597314 2.045692 -3.231975 6.546963 1.647232 -3.446863 6.414877 0.000000 0.000000 0.000000 -26.209556 30.381725 -81.211705 -176.320813 28.882267 -179.066238 0.000000 0.000000 0.000000 0.000000 0.000000 0.000000 -39.868269 -37.928670 93.083776 -101.312143 -20.551854 163.131754 0.000000 0.000000 0.000000 5.274876 0.584356 3.477820 -1.183193 -0.701980 -3.954304 4.777070 -8.718201 5.246389 0.000000 0.000000 0.000000 4.999028 -1.803223 -0.118089 0.689014 0.474533 1.041952 9.984573 -25.454427 0.981822 0.000000 0.000000 0.000000
2.128112 0.243177 0.000000 -8.774009 -0.651199 -7.546310 -0.041068 0.012050 -0.142661 6.237449 3.461206 7.650439 2.858972 -4.186159 6.795063 2.319603 -4.497533 6.574896 0.000000 0.000000 0.000000 -26.253588 30.450709 -81.169511 -175.921584 26.136021 -179.148308 0.000000 0.000000 0.000000 0.000000 0.000000 0.000000 -39.225063 -37.295199 93.105862 -99.789807 -19.923430 163.326941 0.000000 0.000000 0.000000 4.722274 0.367495 3.685932 -1.159989 -0.731911 -5.031730 4.398814 -11.108172 6.687147 0.000000 0.000000 0.000000 4.999028 -1.803223 -0.118089 0.689014 0.474533 1.041952 10.440957 -24.008492 -0.502411 0.000000 0.000000 0.000000
3.132203 0.243529 0.000000 -9.519169 -0.770995 -7.827685 -0.058204 0.013001 -0.167075 6.236045 3.474318 7.963160 3.103792 -3.790421 6.607224 2.623633 -4.129072 6.391814 0.000000 0.000000 0.000000 -27.779890 32.156800 -81.255212 -145.672711 23.371858 -150.705245 0.000000 0.000000 0.000000 0.000000 0.000000 0.000000 -41.695623 -39.255221 93.753643 -81.469175 -16.383985 161.017832 0.000000 0.000000 0.000000 4.518095 0.213214 4.019964 0.109800 -0.144556 -6.092142 3.695415 -13.939110 8.427166 0.000000 0.000000 0.000000 4.999028 -1.803223 -0.118089 0.689014 0.474533 1.041952 13.253481 -25.056173 -4.072325 0.000000 0.000000 0.000000
